# xmcd
#
# Track frame offsets:
#	150
#	14674
#	29559
#	43250
#	55364
#	73408
#	88114
#	112237
#	126190
#	139805
#	152612
#	166038
#	181463
#	195177
#
# Disc length: 2818 seconds
#
# Revision: 1
# Processed by: cddbd v1.5.2PL0 Copyright (c) Steve Scherf et al.
# Submitted via: audiograbber 1.83.01
#
DISCID=cd0b000e
DTITLE=Linda Feller - Wir sind alle keine Engel [CD3)
DYEAR=2009
DGENRE=Country
TTITLE0=Liebe wie im Rosengarten
TTITLE1=Ich führ' Buch über jede Träne
TTITLE2=Papa stell' dein Bier hin
TTITLE3=Zusammensteh'n
TTITLE4=Du gabst ihr deinen Namen
TTITLE5=Sonnenkinder sind wir alle
TTITLE6=Wenn ich nur ein Trucker wär'
TTITLE7=Mir dir wird alles wieder gut
TTITLE8=Die Nacht die kommt gehört dir nicht
TTITLE9=2x ist 1x zuviel
TTITLE10=Wir sind alle keine Engel
TTITLE11=Ein Haus viel schöner als zuhaus
TTITLE12=Am Ende der Straße stehst du
TTITLE13=Solang ich aufwach' neben dir
EXTD=
EXTT0=
EXTT1=
EXTT2=
EXTT3=
EXTT4=
EXTT5=
EXTT6=
EXTT7=
EXTT8=
EXTT9=
EXTT10=
EXTT11=
EXTT12=
EXTT13=
PLAYORDER=
